<svg width="50" height="50" viewBox="0 0 50 50" fill="none" xmlns="http://www.w3.org/2000/svg">
<rect width="50" height="50" rx="8" fill="white"/>
<path d="M23.7318 14.0019C23.7779 14.0019 23.8239 14.0018 23.8714 14.0018C24.0237 14.0019 24.1761 14.0028 24.3284 14.0036C24.434 14.0038 24.5397 14.004 24.6452 14.0041C24.9232 14.0046 25.2012 14.0057 25.4792 14.0069C25.7629 14.0081 26.0465 14.0086 26.3302 14.0092C26.8868 14.0104 27.4434 14.0124 28 14.0147C28 14.0896 28 14.1644 28 14.2415C27.962 14.2415 27.924 14.2415 27.8849 14.2415C27.8687 14.2747 27.8526 14.308 27.836 14.3422C27.7742 14.4598 27.7072 14.5635 27.6296 14.6714C27.6021 14.7098 27.5745 14.7482 27.5462 14.7877C27.5018 14.8488 27.5018 14.8488 27.4566 14.9113C27.4258 14.954 27.395 14.9968 27.3633 15.0409C27.1401 15.3497 26.9132 15.6559 26.6846 15.9608C26.4522 16.2716 26.2263 16.5866 26.001 16.9024C25.8021 17.1809 25.6 17.457 25.3958 17.7318C25.3001 17.8618 25.2067 17.9932 25.114 18.1254C24.8829 18.4525 24.6409 18.7715 24.4001 19.0917C24.1707 19.3975 23.9462 19.7061 23.725 20.0177C23.5225 20.3027 23.316 20.5831 23.0989 20.8576C22.8016 21.2335 22.5216 21.6202 22.2424 22.0092C22.1514 22.1357 22.0603 22.2621 21.969 22.3884C21.9458 22.4204 21.9227 22.4523 21.8989 22.4852C21.6578 22.8173 21.4112 23.1454 21.1635 23.4728C21.0998 23.5574 21.0368 23.6426 20.9747 23.7283C20.8965 23.8324 20.8145 23.9337 20.7293 24.0324C20.3011 24.5621 20.2687 24.9917 20.2783 25.6535C20.2779 25.7558 20.2773 25.8581 20.2764 25.9605C20.2747 26.2361 20.2762 26.5117 20.2783 26.7873C20.2799 27.0761 20.2786 27.365 20.2776 27.6538C20.2761 28.1998 20.2773 28.7457 20.2795 29.2916C20.2818 29.9136 20.2811 30.5356 20.2802 31.1576C20.2785 32.4361 20.2805 33.7146 20.2849 34.9932C19.8289 34.9945 19.373 34.9955 18.9171 34.9961C18.7053 34.9964 18.4937 34.9968 18.2819 34.9975C18.0778 34.9981 17.8736 34.9984 17.6693 34.9986C17.5914 34.9986 17.5133 34.9989 17.4353 34.9992C17.3263 34.9996 17.2172 34.9996 17.1082 34.9996C17.015 34.9998 17.015 34.9998 16.9199 35C16.7727 34.9932 16.7727 34.9932 16.6576 34.9365C16.5692 34.3475 16.5933 33.7378 16.598 33.144C16.5985 33.0531 16.599 32.9621 16.5994 32.8713C16.6004 32.6774 16.6015 32.4835 16.6027 32.2896C16.6046 31.9827 16.6058 31.6757 16.6068 31.3687C16.6072 31.2631 16.6075 31.1576 16.6079 31.052C16.6082 30.9728 16.6082 30.9728 16.6084 30.892C16.6109 30.1786 16.6139 29.4653 16.6186 28.752C16.6217 28.2688 16.6238 27.7856 16.6248 27.3025C16.6253 27.0475 16.6263 26.7925 16.6287 26.5374C16.6308 26.298 16.6317 26.0585 16.6315 25.819C16.6317 25.7314 16.6324 25.6439 16.6336 25.5563C16.64 25.0658 16.6189 24.6821 16.3121 24.2772C16.2776 24.2262 16.2431 24.1752 16.2075 24.1228C16.1743 24.079 16.1412 24.0352 16.107 23.9901C16.0678 23.938 16.0286 23.8859 15.9883 23.8322C15.8865 23.6993 15.7846 23.5666 15.6824 23.434C15.3881 23.0514 15.1043 22.6707 14.8485 22.2615C14.7276 22.0768 14.5907 21.9076 14.4517 21.7362C14.3226 21.5716 14.2084 21.399 14.0928 21.2252C13.9579 21.0268 13.8106 20.8382 13.6636 20.6485C13.1932 20.037 12.7379 19.4163 12.2962 18.7845C12.1299 18.5466 11.9603 18.3127 11.7803 18.0846C11.706 17.9836 11.706 17.9836 11.6338 17.8612C11.4884 17.6282 11.3213 17.4124 11.1555 17.1934C10.7171 16.6109 10.2873 16.0234 9.86767 15.4275C9.7657 15.2859 9.66196 15.146 9.55733 15.0063C9.52313 14.9604 9.48893 14.9145 9.45372 14.8672C9.38469 14.7748 9.31534 14.6825 9.24567 14.5905C9.21394 14.5479 9.18221 14.5053 9.14959 14.4614C9.12078 14.4232 9.09196 14.3849 9.06232 14.3455C9 14.2415 9 14.2415 9 14.0714C9.60857 14.0609 10.2171 14.0529 10.8258 14.0479C11.1085 14.0456 11.3911 14.0424 11.6737 14.0372C11.9466 14.0322 12.2194 14.0296 12.4924 14.0284C12.5963 14.0275 12.7003 14.0259 12.8042 14.0235C13.6192 14.005 13.6192 14.005 13.8731 14.1703C13.9758 14.2843 14.0509 14.3913 14.1242 14.525C14.161 14.5727 14.1977 14.6203 14.2356 14.6694C14.2785 14.7312 14.2785 14.7312 14.3222 14.7944C14.3555 14.8421 14.3888 14.8899 14.4232 14.9392C14.5331 15.1006 14.6417 15.2628 14.7504 15.4251C14.9529 15.7264 15.1685 16.0137 15.392 16.3002C15.4977 16.4416 15.5876 16.5855 15.6788 16.7362C15.7533 16.8398 15.8289 16.9425 15.9055 17.0446C16.0659 17.2599 16.2192 17.4779 16.3697 17.7001C16.479 17.8496 16.5893 17.9983 16.6996 18.1471C17.6883 19.4843 17.6883 19.4843 18.0678 20.0773C18.0913 20.114 18.1149 20.1508 18.1391 20.1886C18.1846 20.2601 18.2298 20.3318 18.2744 20.4037C18.3275 20.4872 18.3846 20.5681 18.4424 20.6485C18.4804 20.6485 18.5184 20.6485 18.5576 20.6485C18.7298 20.4298 18.8699 20.209 19.0063 19.9672C19.1265 19.7725 19.268 19.593 19.4055 19.41C19.5504 19.2118 19.6878 19.0096 19.8242 18.8057C20.0258 18.5052 20.2344 18.2119 20.4513 17.9218C20.7105 17.5697 20.957 17.2087 21.206 16.8496C21.3332 16.6666 21.4603 16.4834 21.5875 16.3004C21.6193 16.2546 21.6511 16.2088 21.6839 16.1616C21.9021 15.8473 22.1215 15.5339 22.3423 15.2213C22.4421 15.079 22.5409 14.936 22.6391 14.7926C22.6677 14.7511 22.6962 14.7096 22.7256 14.6669C22.7813 14.5858 22.8369 14.5046 22.8921 14.4231C22.9174 14.3863 22.9428 14.3496 22.9689 14.3117C22.9912 14.279 23.0135 14.2463 23.0366 14.2126C23.2316 13.9756 23.4498 13.9992 23.7318 14.0019Z" fill="black"/>
<path d="M37.6306 14.0023C38.4204 13.9987 39.2102 13.9996 40 14.003C39.9698 14.2626 39.9217 14.473 39.8049 14.7086C39.7775 14.7648 39.7501 14.821 39.7218 14.8789C39.6927 14.9375 39.6636 14.996 39.6336 15.0563C39.4303 15.4739 39.2361 15.8878 39.071 16.3208C38.9931 16.5174 38.9055 16.7092 38.8166 16.9013C38.6346 17.2955 38.4682 17.6948 38.3037 18.0961C38.0932 18.609 37.8709 19.1147 37.6355 19.6174C37.5594 19.7804 37.4879 19.9442 37.4207 20.1108C37.2606 20.5067 37.0749 20.8924 36.8951 21.2803C36.801 21.484 36.7076 21.688 36.6147 21.8922C36.5835 21.9604 36.5524 22.0287 36.5203 22.099C36.4276 22.3058 36.3413 22.5149 36.2551 22.7243C36.1286 23.0289 35.9976 23.3317 35.8672 23.6347C35.8364 23.7065 35.8056 23.7782 35.7748 23.85C35.7269 23.9614 35.679 24.0729 35.6312 24.1843C35.5207 24.4415 35.4104 24.6987 35.3003 24.956C34.7966 26.1322 34.7966 26.1322 34.5409 26.7133C34.3643 27.1154 34.1953 27.52 34.028 27.9257C33.6366 28.8744 33.2281 29.8155 32.8093 30.7532C32.4965 31.4558 32.1995 32.1648 31.9055 32.875C31.8593 32.9867 31.8128 33.0983 31.7663 33.2099C31.7401 33.2729 31.7139 33.3359 31.6869 33.4008C31.6721 33.4356 31.6575 33.4703 31.6423 33.5061C31.5557 33.7124 31.4754 33.9195 31.4006 34.13C31.3836 34.1763 31.3666 34.2225 31.3491 34.2702C31.316 34.3605 31.2842 34.4512 31.2538 34.5423C31.2384 34.5836 31.223 34.6248 31.2071 34.6673C31.1943 34.704 31.1815 34.7406 31.1683 34.7783C31.04 34.9298 30.8711 34.9547 30.6793 34.9843C30.486 34.9991 30.294 35.0002 30.1002 34.9993C30.0184 34.9994 30.0184 34.9994 29.9349 34.9996C29.8202 34.9997 29.7054 34.9995 29.5907 34.999C29.4156 34.9984 29.2406 34.999 29.0655 34.9998C28.9537 34.9997 28.8418 34.9995 28.7299 34.9993C28.6779 34.9995 28.6259 34.9998 28.5723 35C28.298 34.998 28.0578 34.9907 27.8069 34.8712C27.7248 34.765 27.7248 34.765 27.6674 34.626C27.6438 34.57 27.6201 34.514 27.5957 34.4563C27.5687 34.388 27.5416 34.3195 27.5138 34.2491C27.4788 34.163 27.4438 34.0771 27.4087 33.991C27.3076 33.7413 27.2086 33.4909 27.1103 33.2401C27.0491 33.0841 26.9875 32.9282 26.9259 32.7723C26.7231 32.2581 26.5243 31.7429 26.338 31.2229C26.2385 30.9461 26.1251 30.677 26.0059 30.4077C25.8694 30.0908 25.748 29.7682 25.6245 29.4464C25.55 29.2528 25.4749 29.0593 25.3998 28.8659C25.3851 28.8281 25.3704 28.7902 25.3553 28.7513C25.1853 28.3145 25.0119 27.8791 24.8353 27.4448C24.6787 27.0589 24.5231 26.6734 24.3812 26.2822C24.2255 25.8552 24.0495 25.4367 23.8741 25.017C23.7612 24.7468 23.652 24.4754 23.5448 24.2032C23.4849 24.0529 23.4239 23.9033 23.362 23.7538C23.334 23.6857 23.334 23.6857 23.3055 23.6162C23.2689 23.5271 23.232 23.4381 23.1947 23.3493C23.0035 22.8825 23.0035 22.8825 23 22.6556C23.0738 22.5229 23.1425 22.4221 23.2381 22.3057C23.2773 22.2555 23.2773 22.2555 23.3173 22.2043C23.3749 22.1305 23.433 22.0569 23.4914 21.9836C23.6631 21.7669 23.8293 21.5464 23.9966 21.3267C24.0668 21.2348 24.1372 21.143 24.2074 21.0512C24.382 20.8226 24.5547 20.5928 24.7256 20.3617C24.7491 20.3301 24.7726 20.2986 24.7968 20.266C24.9048 20.1201 25.0098 19.9731 25.112 19.8234C25.1477 19.7712 25.1834 19.7191 25.2203 19.6654C25.2504 19.62 25.2804 19.5747 25.3114 19.528C25.3418 19.4964 25.3721 19.4647 25.4034 19.4321C25.4808 19.4321 25.5582 19.4321 25.638 19.4321C25.8171 19.8401 25.9688 20.2567 26.1178 20.6756C26.2667 21.0917 26.4271 21.5035 26.5883 21.9153C26.6626 22.1054 26.7365 22.2957 26.8103 22.486C26.8397 22.5614 26.8689 22.6368 26.8983 22.7122C26.9569 22.863 27.0155 23.0138 27.0741 23.1647C27.0886 23.202 27.1032 23.2393 27.1182 23.2778C27.1474 23.353 27.1766 23.4282 27.2058 23.5034C27.2803 23.6951 27.355 23.8869 27.43 24.0785C27.6013 24.5164 27.7671 24.9556 27.9241 25.3985C28.0656 25.7938 28.2097 26.1875 28.3637 26.5786C28.5098 26.9502 28.6518 27.3233 28.7936 27.6964C28.8216 27.7701 28.8496 27.8437 28.8776 27.9173C29.0706 28.4246 29.2607 28.9329 29.4483 29.442C29.6601 29.0516 29.8314 28.649 30.0015 28.2403C30.0564 28.1092 30.1112 27.9782 30.1661 27.8471C30.2065 27.7507 30.2065 27.7507 30.2476 27.6524C30.3477 27.4149 30.4502 27.1783 30.5527 26.9417C30.6533 26.7085 30.7509 26.4742 30.8478 26.2397C30.8679 26.1915 30.8878 26.1433 30.9084 26.0936C31.0394 25.7767 31.1677 25.4588 31.2948 25.1404C31.4521 24.7472 31.619 24.3586 31.7899 23.9708C31.9953 23.5032 32.1901 23.0316 32.3844 22.5596C32.4629 22.3688 32.542 22.1782 32.6211 21.9876C32.6492 21.9198 32.6773 21.852 32.7063 21.7822C32.9582 21.1747 32.9582 21.1747 33.0452 20.9653C33.1172 20.7916 33.1885 20.6178 33.2596 20.4439C33.28 20.3939 33.3005 20.344 33.3216 20.2926C33.3616 20.1953 33.4013 20.098 33.4409 20.0006C33.5462 19.7445 33.6615 19.4982 33.7917 19.253C33.8678 19.1044 33.928 18.9514 33.9877 18.7959C34.1784 18.3093 34.3858 17.8315 34.6068 17.357C34.7732 16.9997 34.9317 16.6452 35.0646 16.2749C35.1867 15.9613 35.3275 15.6553 35.4658 15.3481C35.5765 15.1021 35.6839 14.8558 35.7848 14.6059C35.8142 14.5367 35.8142 14.5367 35.8441 14.4661C35.8859 14.3675 35.9255 14.2681 35.9643 14.1684C36.1182 14.0134 36.2431 14.0217 36.4603 14.0146C36.5161 14.0143 36.5719 14.014 36.6293 14.0136C36.6881 14.0122 36.7469 14.0108 36.8075 14.0094C37.0818 14.0042 37.3562 14.0036 37.6306 14.0023Z" fill="black"/>
</svg>
