<svg width="121" height="120" viewBox="0 0 121 120" fill="none" xmlns="http://www.w3.org/2000/svg">
<rect width="121" height="120" rx="4" fill="white"/>
<path d="M23.6115 73H14.3303V46.8182H23.6882C26.3217 46.8182 28.5888 47.3423 30.4893 48.3906C32.3899 49.4304 33.8516 50.9261 34.8743 52.8778C35.9055 54.8295 36.4212 57.1648 36.4212 59.8835C36.4212 62.6108 35.9055 64.9545 34.8743 66.9148C33.8516 68.875 32.3814 70.3793 30.4638 71.4276C28.5547 72.4759 26.2706 73 23.6115 73ZM19.8658 68.2571H23.3814C25.0178 68.2571 26.3942 67.9673 27.5107 67.3878C28.6357 66.7997 29.4794 65.892 30.0419 64.6648C30.6129 63.429 30.8984 61.8352 30.8984 59.8835C30.8984 57.9489 30.6129 56.3679 30.0419 55.1406C29.4794 53.9134 28.6399 53.0099 27.5234 52.4304C26.407 51.8509 25.0305 51.5611 23.3942 51.5611H19.8658V68.2571ZM40.5217 73V46.8182H50.8512C52.8285 46.8182 54.516 47.1719 55.9137 47.8793C57.32 48.5781 58.3896 49.571 59.1225 50.858C59.864 52.1364 60.2347 53.6406 60.2347 55.3707C60.2347 57.1094 59.8597 58.6051 59.1097 59.858C58.3597 61.1023 57.2731 62.0568 55.8498 62.7216C54.435 63.3864 52.7219 63.7188 50.7106 63.7188H43.7944V59.2699H49.8157C50.8725 59.2699 51.7504 59.125 52.4492 58.8352C53.1481 58.5455 53.668 58.1108 54.0089 57.5312C54.3583 56.9517 54.533 56.2315 54.533 55.3707C54.533 54.5014 54.3583 53.7685 54.0089 53.1719C53.668 52.5753 53.1438 52.1236 52.4364 51.8168C51.7376 51.5014 50.8555 51.3438 49.7901 51.3438H46.0572V73H40.5217ZM54.6609 61.0852L61.168 73H55.0572L48.6907 61.0852H54.6609ZM67.2276 73.3324C66.3839 73.3324 65.6594 73.0341 65.0543 72.4375C64.4577 71.8324 64.1594 71.108 64.1594 70.2642C64.1594 69.429 64.4577 68.7131 65.0543 68.1165C65.6594 67.5199 66.3839 67.2216 67.2276 67.2216C68.0458 67.2216 68.7617 67.5199 69.3754 68.1165C69.989 68.7131 70.2958 69.429 70.2958 70.2642C70.2958 70.8267 70.1509 71.3423 69.8612 71.8111C69.5799 72.2713 69.2092 72.642 68.7489 72.9233C68.2887 73.196 67.7816 73.3324 67.2276 73.3324ZM91.0412 46.8182H96.5767V63.821C96.5767 65.7301 96.1207 67.4006 95.2088 68.8324C94.3054 70.2642 93.0398 71.3807 91.4119 72.1818C89.7841 72.9744 87.8878 73.3707 85.723 73.3707C83.5497 73.3707 81.6491 72.9744 80.0213 72.1818C78.3935 71.3807 77.1278 70.2642 76.2244 68.8324C75.321 67.4006 74.8693 65.7301 74.8693 63.821V46.8182H80.4048V63.348C80.4048 64.3452 80.6222 65.2315 81.0568 66.0071C81.5 66.7827 82.1222 67.392 82.9233 67.8352C83.7244 68.2784 84.6577 68.5 85.723 68.5C86.7969 68.5 87.7301 68.2784 88.5227 67.8352C89.3239 67.392 89.9418 66.7827 90.3764 66.0071C90.8196 65.2315 91.0412 64.3452 91.0412 63.348V46.8182ZM106.667 46.8182V73H101.131V46.8182H106.667Z" fill="black"/>
</svg>
